<svg width="40" height="40" fill="none" xmlns="http://www.w3.org/2000/svg"><g clip-path="url(#a)" fill="#fff"><path d="M13.911 14.907h-6.3l-.35.673h6.265l-2.738 4.782h-6.01l-.35.674h5.975L7.88 25.44h-5.77l1.552-2.983v-1.422h.019v-.673h-.019V15.58h.019v-.673h-.019v-.358h.019v-1.33h4.786l1.766-3.395h6.587l-2.91 5.083ZM17.596 9.824l-2.91 5.083h5.47l2.91-5.083h-5.47ZM23.842 9.824l-2.91 5.083h5.89l1.3-2.539 8.84 17.809h3.39L29.766 9.824h-5.924Z"/><path d="M26.477 15.58h-5.93l-2.738 4.782h6.217l2.45-4.782ZM23.68 21.035h-6.256l-2.521 4.405h6.52l2.258-4.405ZM21.079 26.113h-6.562l-2.326 4.064h6.805l2.083-4.064ZM11.415 30.177l2.327-4.064h-5.47l-2.327 4.064h5.47ZM5.17 30.177l2.326-4.064H1.761l-2.114 4.064H5.17ZM14.301 15.58h5.47l-2.737 4.782h-5.47L14.3 15.58ZM11.178 21.035 8.657 25.44h5.47l2.521-4.405h-5.47ZM24.887 22.472h2.968v2.968h-2.968v-2.968ZM24.887 26.182h2.968v2.968h-2.968v-2.968ZM31.564 22.472h-2.967v2.968h2.967v-2.968ZM28.597 26.182h2.967v2.968h-2.967v-2.968Z"/></g><defs><clipPath id="a"><path fill="#fff" d="M0 0h40v40H0z"/></clipPath></defs></svg>