<svg width="40" height="40" fill="none" xmlns="http://www.w3.org/2000/svg"><path d="M5 9a1 1 0 0 1 1-1h12.082a1 1 0 0 1 1 1v4.757a1 1 0 0 1-1 1H6a1 1 0 0 1-1-1V9ZM5 18.122a1 1 0 0 1 1-1h5.96a1 1 0 0 1 1 1v4.756a1 1 0 0 1-1 1H6a1 1 0 0 1-1-1v-4.756ZM14.796 18.122a1 1 0 0 1 1-1h12.082a1 1 0 0 1 1 1v4.756a1 1 0 0 1-1 1H15.796a1 1 0 0 1-1-1v-4.756ZM5 27.243a1 1 0 0 1 1-1h12.082a1 1 0 0 1 1 1V32a1 1 0 0 1-1 1H6a1 1 0 0 1-1-1v-4.757ZM20.918 27.243a1 1 0 0 1 1-1H34a1 1 0 0 1 1 1V32a1 1 0 0 1-1 1H21.918a1 1 0 0 1-1-1v-4.757Z" fill="#fff"/></svg>