<svg width="40" height="40" fill="none" xmlns="http://www.w3.org/2000/svg"><path d="M34.721 2.959h-3.526a.588.588 0 0 0-.525.325l-3 6-3-6a.588.588 0 0 0-.526-.325H11.217a.587.587 0 0 0-.588.588v15.382l-5.56-3.538a.588.588 0 0 0-.731.08L1.4 18.409a.587.587 0 0 0-.024.806l9.253 10.41v6.828c0 .324.263.587.588.587h6.463v-9.402a.587.587 0 1 1 1.176 0v9.402H34.72a.587.587 0 0 0 .588-.587V3.547a.587.587 0 0 0-.588-.588ZM18.856 24.113a.587.587 0 1 1-1.176 0v-1.175a.587.587 0 1 1 1.176 0v1.175Z" fill="#fff"/></svg>