<svg aria-hidden="true" style="position: absolute; width: 0; height: 0; overflow: hidden;" version="1.1" xmlns="http://www.w3.org/2000/svg" xmlns:xlink="http://www.w3.org/1999/xlink">
<defs>
<symbol id="icon-logo-header" viewBox="0 0 149 32">
<path fill="#15b2f5" style="fill: var(--color1, #15b2f5)" d="M14.080 7.75c1.142-0.84 2.698-0.84 3.84 0l6.888 5.065c0.831 0.611 1.321 1.58 1.321 2.611v10.332h-6.483v-8.692l-3.647-2.681-3.646 2.681v8.692h-6.483v-10.332c0-1.031 0.491-2.001 1.321-2.611l6.888-5.065z"></path>
<path fill="#fff" style="fill: var(--color2, #fff)" d="M12.395 25.758h7.243v5.242h-7.243v-5.242z"></path>
<path fill="#fff" style="fill: var(--color2, #fff)" d="M40 24.796v-17.88h3.72v7.728h6.96v-7.728h3.72v17.88h-3.72v-6.912h-6.96v6.912h-3.72z"></path>
<path fill="#fff" style="fill: var(--color2, #fff)" d="M63.818 25.084c-1.296 0-2.48-0.296-3.552-0.888-1.056-0.592-1.904-1.4-2.544-2.424-0.624-1.040-0.936-2.216-0.936-3.528 0-1.328 0.312-2.504 0.936-3.528 0.64-1.024 1.488-1.832 2.544-2.424 1.072-0.592 2.256-0.888 3.552-0.888s2.472 0.296 3.528 0.888c1.056 0.592 1.896 1.4 2.52 2.424 0.64 1.024 0.96 2.2 0.96 3.528 0 1.312-0.32 2.488-0.96 3.528-0.624 1.024-1.464 1.832-2.52 2.424s-2.232 0.888-3.528 0.888zM63.818 21.844c0.656 0 1.224-0.152 1.704-0.456 0.496-0.304 0.88-0.728 1.152-1.272 0.288-0.544 0.432-1.168 0.432-1.872s-0.144-1.32-0.432-1.848c-0.272-0.544-0.656-0.968-1.152-1.272-0.48-0.32-1.048-0.48-1.704-0.48s-1.232 0.16-1.728 0.48c-0.496 0.304-0.888 0.728-1.176 1.272-0.272 0.528-0.408 1.144-0.408 1.848s0.136 1.328 0.408 1.872c0.288 0.544 0.68 0.968 1.176 1.272s1.072 0.456 1.728 0.456z"></path>
<path fill="#fff" style="fill: var(--color2, #fff)" d="M72.947 24.796v-13.104h3.36v3.192l-0.36-0.528c0.192-1.008 0.656-1.752 1.392-2.232s1.616-0.72 2.64-0.72c1.088 0 2.040 0.28 2.856 0.84 0.832 0.544 1.352 1.28 1.56 2.208l-1.032 0.096c0.432-1.072 1.048-1.864 1.848-2.376s1.736-0.768 2.808-0.768c0.944 0 1.776 0.208 2.496 0.624 0.736 0.416 1.312 1 1.728 1.752 0.416 0.736 0.624 1.6 0.624 2.592v8.424h-3.6v-7.656c0-0.512-0.096-0.952-0.288-1.32-0.176-0.368-0.432-0.656-0.768-0.864s-0.744-0.312-1.224-0.312c-0.464 0-0.872 0.104-1.224 0.312-0.336 0.208-0.6 0.496-0.792 0.864-0.176 0.368-0.264 0.808-0.264 1.32v7.656h-3.6v-7.656c0-0.512-0.096-0.952-0.288-1.32-0.176-0.368-0.432-0.656-0.768-0.864s-0.744-0.312-1.224-0.312c-0.464 0-0.872 0.104-1.224 0.312-0.336 0.208-0.6 0.496-0.792 0.864-0.176 0.368-0.264 0.808-0.264 1.32v7.656h-3.6z"></path>
<path fill="#fff" style="fill: var(--color2, #fff)" d="M101.548 25.084c-1.392 0-2.6-0.304-3.624-0.912-1.024-0.624-1.816-1.456-2.376-2.496s-0.84-2.192-0.84-3.456c0-1.312 0.288-2.48 0.864-3.504 0.592-1.024 1.384-1.832 2.376-2.424s2.112-0.888 3.36-0.888c1.040 0 1.96 0.168 2.76 0.504 0.8 0.32 1.472 0.776 2.016 1.368 0.56 0.592 0.984 1.28 1.272 2.064 0.288 0.768 0.432 1.608 0.432 2.52 0 0.256-0.016 0.512-0.048 0.768-0.016 0.24-0.056 0.448-0.12 0.624h-9.816v-2.64h7.776l-1.704 1.248c0.16-0.688 0.152-1.296-0.024-1.824-0.176-0.544-0.488-0.968-0.936-1.272-0.432-0.32-0.968-0.48-1.608-0.48-0.624 0-1.16 0.152-1.608 0.456s-0.784 0.752-1.008 1.344c-0.224 0.592-0.312 1.312-0.264 2.16-0.064 0.736 0.024 1.384 0.264 1.944s0.608 1 1.104 1.32c0.496 0.304 1.096 0.456 1.8 0.456 0.64 0 1.184-0.128 1.632-0.384 0.464-0.256 0.824-0.608 1.080-1.056l2.88 1.368c-0.256 0.64-0.664 1.2-1.224 1.68-0.544 0.48-1.192 0.856-1.944 1.128-0.752 0.256-1.576 0.384-2.472 0.384z"></path>
<path fill="#fff" style="fill: var(--color2, #fff)" d="M110.172 24.796v-17.88h6.864c1.232 0 2.32 0.216 3.264 0.648 0.96 0.432 1.712 1.072 2.256 1.92s0.816 1.896 0.816 3.144c0 1.216-0.28 2.248-0.84 3.096-0.544 0.848-1.296 1.496-2.256 1.944-0.944 0.432-2.024 0.648-3.24 0.648h-3.144v6.48h-3.72zM113.892 15.076h3.168c0.528 0 0.984-0.104 1.368-0.312s0.68-0.496 0.888-0.864c0.224-0.368 0.336-0.792 0.336-1.272 0-0.496-0.112-0.928-0.336-1.296-0.208-0.368-0.504-0.656-0.888-0.864s-0.84-0.312-1.368-0.312h-3.168v4.92z"></path>
<path fill="#fff" style="fill: var(--color2, #fff)" d="M125.494 24.796v-13.104h3.36v3.144l-0.24-0.456c0.288-1.104 0.76-1.848 1.416-2.232 0.672-0.4 1.464-0.6 2.376-0.6h0.768v3.12h-1.128c-0.88 0-1.592 0.272-2.136 0.816-0.544 0.528-0.816 1.28-0.816 2.256v7.056h-3.6z"></path>
<path fill="#fff" style="fill: var(--color2, #fff)" d="M141.256 25.084c-1.296 0-2.48-0.296-3.552-0.888-1.056-0.592-1.904-1.4-2.544-2.424-0.624-1.040-0.936-2.216-0.936-3.528 0-1.328 0.312-2.504 0.936-3.528 0.64-1.024 1.488-1.832 2.544-2.424 1.072-0.592 2.256-0.888 3.552-0.888s2.472 0.296 3.528 0.888c1.056 0.592 1.896 1.4 2.52 2.424 0.64 1.024 0.96 2.2 0.96 3.528 0 1.312-0.32 2.488-0.96 3.528-0.624 1.024-1.464 1.832-2.52 2.424s-2.232 0.888-3.528 0.888zM141.256 21.844c0.656 0 1.224-0.152 1.704-0.456 0.496-0.304 0.88-0.728 1.152-1.272 0.288-0.544 0.432-1.168 0.432-1.872s-0.144-1.32-0.432-1.848c-0.272-0.544-0.656-0.968-1.152-1.272-0.48-0.32-1.048-0.48-1.704-0.48s-1.232 0.16-1.728 0.48c-0.496 0.304-0.888 0.728-1.176 1.272-0.272 0.528-0.408 1.144-0.408 1.848s0.136 1.328 0.408 1.872c0.288 0.544 0.68 0.968 1.176 1.272s1.072 0.456 1.728 0.456z"></path>
</symbol>
<symbol id="icon-Ic_24-Check" viewBox="0 0 33 32">
<path fill="none" stroke="#15b2f5" style="stroke: var(--color1, #15b2f5)" stroke-linejoin="round" stroke-linecap="round" stroke-miterlimit="4" stroke-width="2.6667" d="M27.333 8l-14.667 14.667-6.667-6.667"></path>
</symbol>
<symbol id="icon-Ic_24-Calendar" viewBox="0 0 32 32">
<path fill="none" stroke="#fff" style="stroke: var(--color1, #fff)" stroke-linejoin="round" stroke-linecap="round" stroke-miterlimit="4" stroke-width="2.6667" d="M25.341 5.335h-18.672c-1.473 0-2.667 1.194-2.667 2.667v0 18.672c0 1.473 1.194 2.667 2.667 2.667v0h18.672c1.473 0 2.667-1.194 2.667-2.667v0-18.672c0-1.473-1.194-2.667-2.667-2.667v0z"></path>
<path fill="none" stroke="#fff" style="stroke: var(--color1, #fff)" stroke-linejoin="round" stroke-linecap="round" stroke-miterlimit="4" stroke-width="2.6667" d="M20.006 18.672l-4.168 5.335-2.501-2.51M21.34 2.667v5.335M10.67 2.667v5.335M4.001 13.337h24.007"></path>
</symbol>
<symbol id="icon-Ic_24-Clock" viewBox="0 0 32 32">
<path fill="none" stroke="#fff" style="stroke: var(--color1, #fff)" stroke-linejoin="round" stroke-linecap="round" stroke-miterlimit="4" stroke-width="2.6667" d="M16.005 29.342c7.366 0 13.337-5.971 13.337-13.337s-5.971-13.337-13.337-13.337-13.337 5.971-13.337 13.337 5.971 13.337 13.337 13.337z"></path>
<path fill="none" stroke="#fff" style="stroke: var(--color1, #fff)" stroke-linejoin="round" stroke-linecap="round" stroke-miterlimit="4" stroke-width="2.6667" d="M16.005 8.002v8.002l5.335 2.667"></path>
</symbol>
<symbol id="icon-Ic_24-Guarantee" viewBox="0 0 32 32">
<path fill="none" stroke="#fff" style="stroke: var(--color1, #fff)" stroke-linejoin="miter" stroke-linecap="butt" stroke-miterlimit="4" stroke-width="2.6667" d="M14.104 3.929c0.484-0.491 1.157-0.796 1.901-0.796s1.416 0.304 1.9 0.795l0 0 1.391 1.414c0.484 0.491 1.156 0.795 1.9 0.795 0.007 0 0.015-0 0.022-0h-0.001l1.983-0.015c0.006-0 0.012-0 0.019-0 1.473 0 2.667 1.194 2.667 2.667 0 0.007-0 0.013-0 0.020v-0.001l-0.013 1.983c-0 0.006-0 0.013-0 0.021 0 0.743 0.304 1.416 0.795 1.899l0 0 1.412 1.391c0.491 0.484 0.796 1.157 0.796 1.901s-0.304 1.416-0.795 1.9l-1.414 1.391c-0.491 0.484-0.795 1.156-0.795 1.9 0 0.007 0 0.015 0 0.022v-0.001l0.015 1.983c0 0.006 0 0.012 0 0.019 0 1.473-1.194 2.667-2.667 2.667-0.007 0-0.013-0-0.020-0h0.001l-1.983-0.013c-0.006-0-0.013-0-0.021-0-0.743 0-1.416 0.304-1.899 0.795l-0 0-1.391 1.412c-0.484 0.491-1.157 0.796-1.901 0.796s-1.416-0.304-1.9-0.795l-0-0-1.391-1.414c-0.484-0.491-1.156-0.795-1.9-0.795-0.007 0-0.015 0-0.022 0h0.001l-1.983 0.015c-0.006 0-0.012 0-0.019 0-1.473 0-2.667-1.194-2.667-2.667 0-0.007 0-0.013 0-0.020v0.001l0.013-1.983c0-0.006 0-0.013 0-0.021 0-0.743-0.304-1.416-0.795-1.899l-0-0-1.412-1.391c-0.491-0.484-0.796-1.157-0.796-1.901s0.304-1.416 0.795-1.9l1.414-1.391c0.491-0.484 0.795-1.156 0.795-1.9 0-0.007-0-0.015-0-0.022v0.001l-0.016-1.983c-0-0.006-0-0.012-0-0.019 0-1.473 1.194-2.667 2.667-2.667 0.007 0 0.013 0 0.020 0h-0.001l1.983 0.013c0.006 0 0.013 0 0.021 0 0.743 0 1.416-0.304 1.899-0.795l0-0 1.391-1.412z"></path>
<path fill="none" stroke="#fff" style="stroke: var(--color1, #fff)" stroke-linejoin="round" stroke-linecap="round" stroke-miterlimit="4" stroke-width="2.6667" d="M21.34 13.337l-5.835 5.335-3.501-2.51"></path>
</symbol>
<symbol id="icon-Ic_24-Map-pin" viewBox="0 0 32 32">
<path fill="none" stroke="#fff" style="stroke: var(--color1, #fff)" stroke-linejoin="round" stroke-linecap="round" stroke-miterlimit="4" stroke-width="2.6667" d="M28.008 13.337c0 6.833-6.429 12.95-9.876 15.741-0.574 0.474-1.317 0.762-2.127 0.762s-1.554-0.288-2.133-0.767l0.006 0.005c-3.448-2.791-9.876-8.909-9.876-15.741 0-6.629 5.374-12.003 12.003-12.003s12.003 5.374 12.003 12.003v0z"></path>
<path fill="none" stroke="#fff" style="stroke: var(--color1, #fff)" stroke-linejoin="round" stroke-linecap="round" stroke-miterlimit="4" stroke-width="2.6667" d="M16.005 17.338c2.21 0 4.001-1.791 4.001-4.001s-1.791-4.001-4.001-4.001v0c-2.21 0-4.001 1.791-4.001 4.001s1.791 4.001 4.001 4.001v0z"></path>
</symbol>
<symbol id="icon-IC_phone" viewBox="0 0 33 32">
<path d="M30 22.565v4c0 0.003 0 0.007 0 0.011 0 1.473-1.194 2.667-2.667 2.667-0.084 0-0.168-0.004-0.251-0.012l0.011 0.001c-4.327-0.482-8.236-1.943-11.607-4.155l0.1 0.062c-3.242-2.081-5.919-4.758-7.938-7.897l-0.062-0.103c-2.158-3.286-3.62-7.214-4.083-11.442l-0.010-0.118c-0.007-0.072-0.011-0.155-0.011-0.24 0-1.472 1.192-2.665 2.664-2.667h4c0.008-0 0.017-0 0.026-0 1.341 0 2.451 0.99 2.639 2.279l0.002 0.014c0.169 1.28 0.481 2.537 0.933 3.747 0.108 0.279 0.171 0.601 0.171 0.938 0 0.731-0.294 1.394-0.771 1.875l-1.693 1.693c1.932 3.356 4.644 6.068 7.897 7.945l0.103 0.055 1.693-1.693c0.482-0.476 1.144-0.771 1.875-0.771 0.337 0 0.66 0.063 0.957 0.177l-0.018-0.006c1.209 0.452 2.467 0.765 3.747 0.933 1.304 0.189 2.294 1.299 2.294 2.641 0 0.023-0 0.046-0.001 0.070l0-0.003z"></path>
</symbol>
<symbol id="icon-decoration-left" viewBox="0 0 341 32">
<path  d="M308.565 4.178c-3.104-2.694-7.076-4.178-11.187-4.178h-299.157v32h342.4l-32.057-27.823z"></path>
</symbol>
<symbol id="icon-decoration-right" viewBox="0 0 344 32">
<path d="M32.057 4.177c3.104-2.694 7.076-4.178 11.187-4.178l301.645 0v32h-344.889l32.057-27.823z"></path>
</symbol>
</defs>
</svg>
