<svg aria-hidden="true" style="position: absolute; width: 0; height: 0; overflow: hidden;" version="1.1" xmlns="http://www.w3.org/2000/svg" xmlns:xlink="http://www.w3.org/1999/xlink">
<defs>
<symbol id="icon-facebook" viewBox="0 0 32 32">
<path fill="#fff" style="fill: var(--color1, #fff)" d="M24.007 2.667h-4.001c-3.683 0-6.669 2.986-6.669 6.669v0 4.001h-4.001v5.335h4.001v10.67h5.335v-10.67h4.001l1.334-5.335h-5.335v-4.001c0-0.737 0.597-1.334 1.334-1.334v0h4.001v-5.335z"></path>
</symbol>
<symbol id="icon-HomePro" viewBox="0 0 32 32">
<path fill="#fff" style="fill: var(--color1, #fff)" d="M0 18.582v-5.25h1.092v2.269h2.043v-2.269h1.092v5.25h-1.092v-2.029h-2.043v2.029h-1.092zM6.993 18.667c-0.38 0-0.728-0.087-1.043-0.261-0.308-0.173-0.56-0.414-0.742-0.703l-0.005-0.009c-0.183-0.305-0.275-0.651-0.275-1.036 0-0.39 0.092-0.735 0.275-1.036 0.187-0.298 0.438-0.538 0.737-0.706l0.010-0.005c0.315-0.174 0.662-0.261 1.043-0.261s0.726 0.087 1.036 0.261c0.307 0.172 0.557 0.413 0.735 0.703l0.005 0.009c0.188 0.301 0.282 0.646 0.282 1.036 0 0.385-0.094 0.73-0.282 1.036-0.183 0.299-0.433 0.54-0.73 0.706l-0.010 0.005c-0.31 0.174-0.655 0.261-1.036 0.261zM6.993 17.716c0.193 0 0.359-0.045 0.5-0.134 0.146-0.089 0.258-0.214 0.338-0.373 0.085-0.16 0.127-0.343 0.127-0.55s-0.042-0.388-0.127-0.543c-0.077-0.156-0.192-0.283-0.334-0.371l-0.004-0.002c-0.141-0.094-0.308-0.141-0.5-0.141s-0.362 0.047-0.507 0.141c-0.147 0.092-0.264 0.218-0.343 0.368l-0.003 0.005c-0.080 0.155-0.12 0.336-0.12 0.543s0.040 0.39 0.12 0.55c0.085 0.16 0.2 0.284 0.345 0.373s0.315 0.134 0.507 0.134zM9.673 18.582v-3.847h0.986v0.937l-0.106-0.155c0.056-0.296 0.193-0.514 0.409-0.655s0.474-0.211 0.775-0.211c0.319 0 0.599 0.082 0.838 0.247 0.244 0.16 0.397 0.376 0.458 0.648l-0.303 0.028c0.127-0.315 0.308-0.547 0.543-0.698s0.51-0.225 0.824-0.225c0.277 0 0.521 0.061 0.733 0.183 0.215 0.122 0.388 0.297 0.504 0.508l0.003 0.007c0.122 0.216 0.183 0.47 0.183 0.761v2.473h-1.057v-2.248c0-0.15-0.028-0.279-0.085-0.388-0.050-0.106-0.127-0.192-0.223-0.252l-0.002-0.001c-0.099-0.061-0.218-0.092-0.359-0.092-0.004-0-0.010-0-0.015-0-0.127 0-0.246 0.034-0.348 0.094l0.003-0.002c-0.099 0.061-0.176 0.146-0.233 0.254-0.052 0.108-0.078 0.237-0.078 0.388v2.248h-1.057v-2.248c0-0.15-0.028-0.279-0.085-0.388-0.050-0.106-0.127-0.192-0.223-0.252l-0.002-0.001c-0.099-0.061-0.218-0.092-0.359-0.092-0.004-0-0.010-0-0.015-0-0.127 0-0.246 0.034-0.348 0.094l0.003-0.002c-0.099 0.061-0.176 0.146-0.233 0.254-0.052 0.108-0.078 0.237-0.078 0.388v2.248h-1.057zM18.070 18.667c-0.409 0-0.763-0.089-1.064-0.268-0.295-0.179-0.532-0.427-0.693-0.723l-0.005-0.010c-0.164-0.305-0.247-0.644-0.247-1.015 0-0.385 0.085-0.728 0.254-1.029 0.17-0.296 0.406-0.536 0.689-0.707l0.009-0.005c0.291-0.174 0.62-0.261 0.986-0.261 0.305 0 0.575 0.049 0.81 0.148 0.235 0.094 0.432 0.228 0.592 0.402 0.164 0.174 0.289 0.376 0.373 0.606 0.085 0.225 0.127 0.472 0.127 0.74 0 0.075-0.005 0.15-0.014 0.225-0.005 0.070-0.016 0.132-0.035 0.183h-2.882v-0.775h2.283l-0.5 0.366c0.047-0.202 0.045-0.381-0.007-0.536-0.048-0.156-0.145-0.284-0.272-0.372l-0.002-0.002c-0.127-0.094-0.284-0.141-0.472-0.141-0.183 0-0.341 0.045-0.472 0.134s-0.23 0.221-0.296 0.395c-0.066 0.174-0.092 0.385-0.078 0.634-0.019 0.216 0.007 0.406 0.078 0.571s0.178 0.294 0.324 0.388c0.146 0.089 0.322 0.134 0.528 0.134 0.188 0 0.348-0.038 0.479-0.113 0.134-0.073 0.241-0.179 0.315-0.306l0.002-0.004 0.846 0.402c-0.081 0.197-0.204 0.362-0.357 0.492l-0.002 0.002c-0.161 0.14-0.351 0.253-0.558 0.327l-0.012 0.004c-0.221 0.075-0.463 0.113-0.726 0.113zM20.602 18.582v-5.25h2.015c0.362 0 0.681 0.063 0.958 0.19 0.282 0.127 0.503 0.315 0.662 0.564s0.24 0.557 0.24 0.923c0 0.357-0.082 0.66-0.247 0.909-0.16 0.249-0.381 0.439-0.662 0.571-0.277 0.127-0.594 0.19-0.951 0.19h-0.923v1.902h-1.092zM21.694 15.729h0.93c0.155 0 0.289-0.031 0.402-0.092 0.11-0.059 0.199-0.146 0.259-0.251l0.002-0.003c0.066-0.108 0.099-0.233 0.099-0.373 0-0.146-0.033-0.272-0.099-0.38-0.062-0.108-0.151-0.195-0.257-0.252l-0.003-0.002c-0.113-0.061-0.247-0.092-0.402-0.092h-0.93v1.444zM25.101 18.582v-3.847h0.986v0.923l-0.070-0.134c0.085-0.324 0.223-0.543 0.416-0.655 0.197-0.117 0.43-0.176 0.698-0.176h0.225v0.916h-0.331c-0.258 0-0.467 0.080-0.627 0.24-0.16 0.155-0.24 0.376-0.24 0.662v2.072h-1.057zM29.728 18.667c-0.381 0-0.728-0.087-1.043-0.261-0.308-0.173-0.56-0.414-0.742-0.703l-0.005-0.009c-0.183-0.305-0.275-0.651-0.275-1.036 0-0.39 0.092-0.735 0.275-1.036 0.187-0.298 0.438-0.538 0.737-0.706l0.010-0.005c0.315-0.174 0.662-0.261 1.043-0.261s0.726 0.087 1.036 0.261c0.307 0.172 0.557 0.413 0.735 0.703l0.005 0.009c0.188 0.301 0.282 0.646 0.282 1.036 0 0.385-0.094 0.73-0.282 1.036-0.183 0.299-0.433 0.54-0.73 0.706l-0.010 0.005c-0.31 0.174-0.655 0.261-1.036 0.261zM29.728 17.716c0.193 0 0.359-0.045 0.5-0.134 0.146-0.089 0.258-0.214 0.338-0.373 0.085-0.16 0.127-0.343 0.127-0.55s-0.042-0.388-0.127-0.543c-0.077-0.156-0.192-0.283-0.334-0.371l-0.004-0.002c-0.141-0.094-0.308-0.141-0.5-0.141s-0.362 0.047-0.507 0.141c-0.147 0.092-0.264 0.218-0.343 0.368l-0.003 0.005c-0.080 0.155-0.12 0.336-0.12 0.543s0.040 0.39 0.12 0.55c0.085 0.16 0.2 0.284 0.345 0.373s0.315 0.134 0.507 0.134z"></path>
</symbol>
<symbol id="icon-HomePro2" viewBox="0 0 32 32">
<path fill="#fff" style="fill: var(--color1, #fff)" d="M0 18.592v-5.266h1.096v2.276h2.050v-2.276h1.096v5.266h-1.096v-2.036h-2.050v2.036h-1.096zM7.014 18.677c-0.382 0-0.73-0.087-1.046-0.262-0.309-0.174-0.562-0.415-0.744-0.705l-0.005-0.009c-0.184-0.306-0.276-0.653-0.276-1.039 0-0.391 0.092-0.737 0.276-1.039 0.187-0.299 0.44-0.54 0.739-0.709l0.010-0.005c0.316-0.174 0.664-0.262 1.046-0.262s0.728 0.087 1.039 0.262c0.308 0.173 0.559 0.414 0.737 0.705l0.005 0.009c0.188 0.302 0.283 0.648 0.283 1.039 0 0.386-0.094 0.733-0.283 1.039-0.183 0.3-0.434 0.541-0.732 0.709l-0.010 0.005c-0.311 0.174-0.657 0.262-1.039 0.262zM7.014 17.722c0.193 0 0.36-0.045 0.502-0.134 0.146-0.091 0.262-0.218 0.337-0.369l0.002-0.005c0.085-0.16 0.127-0.344 0.127-0.551s-0.042-0.389-0.127-0.544c-0.077-0.156-0.193-0.284-0.335-0.372l-0.004-0.002c-0.141-0.094-0.309-0.141-0.502-0.141s-0.363 0.047-0.509 0.141c-0.146 0.090-0.262 0.214-0.346 0.375-0.080 0.155-0.12 0.337-0.12 0.544s0.040 0.391 0.12 0.551c0.085 0.16 0.2 0.285 0.346 0.375s0.316 0.134 0.509 0.134zM9.703 18.592v-3.859h0.99v0.94l-0.106-0.155c0.057-0.297 0.193-0.516 0.41-0.657s0.476-0.212 0.777-0.212c0.32 0 0.601 0.082 0.841 0.247 0.245 0.16 0.398 0.377 0.459 0.65l-0.304 0.028c0.127-0.316 0.309-0.549 0.544-0.7s0.511-0.226 0.827-0.226c0.278 0 0.523 0.061 0.735 0.184 0.216 0.123 0.389 0.298 0.505 0.509l0.003 0.007c0.123 0.217 0.184 0.471 0.184 0.763v2.481h-1.060v-2.255c0-0.151-0.028-0.28-0.085-0.389-0.050-0.106-0.128-0.193-0.224-0.253l-0.002-0.001c-0.099-0.061-0.219-0.092-0.36-0.092-0.137 0-0.257 0.031-0.36 0.092-0.099 0.061-0.177 0.146-0.233 0.254-0.052 0.108-0.078 0.238-0.078 0.389v2.255h-1.060v-2.255c0-0.151-0.028-0.28-0.085-0.389-0.050-0.106-0.128-0.193-0.224-0.253l-0.002-0.001c-0.099-0.061-0.219-0.092-0.36-0.092-0.137 0-0.257 0.031-0.36 0.092-0.099 0.061-0.177 0.146-0.233 0.254-0.052 0.108-0.078 0.238-0.078 0.389v2.255h-1.060zM18.126 18.677c-0.41 0-0.766-0.090-1.067-0.269-0.296-0.18-0.534-0.429-0.695-0.725l-0.005-0.010c-0.165-0.306-0.247-0.646-0.247-1.018 0-0.386 0.085-0.73 0.254-1.032 0.174-0.302 0.408-0.54 0.7-0.714s0.622-0.262 0.99-0.262c0.306 0 0.577 0.049 0.813 0.148 0.236 0.094 0.433 0.229 0.594 0.403 0.16 0.169 0.288 0.372 0.371 0.596l0.004 0.012c0.085 0.226 0.127 0.474 0.127 0.742 0 0.075-0.005 0.151-0.014 0.226-0.005 0.071-0.017 0.132-0.035 0.184h-2.891v-0.777h2.29l-0.502 0.368c0.047-0.203 0.045-0.382-0.007-0.537-0.052-0.16-0.144-0.285-0.276-0.375-0.127-0.094-0.285-0.141-0.474-0.141-0.184 0-0.342 0.045-0.474 0.134s-0.231 0.221-0.297 0.396c-0.066 0.174-0.092 0.386-0.078 0.636-0.019 0.217 0.007 0.408 0.078 0.573s0.179 0.294 0.325 0.389c0.146 0.090 0.323 0.134 0.53 0.134 0.188 0 0.349-0.038 0.481-0.113 0.134-0.073 0.242-0.179 0.316-0.307l0.002-0.004 0.848 0.403c-0.075 0.188-0.196 0.353-0.36 0.495-0.16 0.141-0.351 0.252-0.573 0.332-0.221 0.075-0.464 0.113-0.728 0.113zM20.666 18.592v-5.266h2.021c0.363 0 0.683 0.064 0.961 0.191 0.283 0.127 0.504 0.316 0.664 0.565s0.24 0.558 0.24 0.926c0 0.358-0.082 0.662-0.247 0.912-0.16 0.25-0.382 0.441-0.664 0.572-0.278 0.127-0.596 0.191-0.954 0.191h-0.926v1.908h-1.096zM21.761 15.729h0.933c0.155 0 0.29-0.031 0.403-0.092 0.111-0.059 0.2-0.146 0.26-0.251l0.002-0.003c0.066-0.108 0.099-0.233 0.099-0.375 0-0.146-0.033-0.273-0.099-0.382-0.062-0.108-0.151-0.195-0.258-0.253l-0.003-0.002c-0.113-0.061-0.247-0.092-0.403-0.092h-0.933v1.449zM25.178 18.592v-3.859h0.99v0.926l-0.071-0.134c0.085-0.325 0.224-0.544 0.417-0.657 0.198-0.118 0.431-0.177 0.7-0.177h0.226v0.919h-0.332c-0.259 0-0.469 0.080-0.629 0.24-0.16 0.155-0.24 0.377-0.24 0.664v2.078h-1.060zM29.82 18.677c-0.382 0-0.73-0.087-1.046-0.262-0.309-0.174-0.562-0.415-0.744-0.705l-0.005-0.009c-0.184-0.306-0.276-0.653-0.276-1.039 0-0.391 0.092-0.737 0.276-1.039 0.187-0.299 0.44-0.54 0.739-0.709l0.010-0.005c0.316-0.174 0.664-0.262 1.046-0.262s0.728 0.087 1.039 0.262c0.308 0.173 0.559 0.414 0.737 0.705l0.005 0.009c0.188 0.302 0.283 0.648 0.283 1.039 0 0.386-0.094 0.733-0.283 1.039-0.183 0.3-0.434 0.541-0.732 0.709l-0.010 0.005c-0.311 0.174-0.657 0.262-1.039 0.262zM29.82 17.722c0.193 0 0.36-0.045 0.502-0.134 0.146-0.091 0.262-0.218 0.337-0.369l0.002-0.005c0.085-0.16 0.127-0.344 0.127-0.551s-0.042-0.389-0.127-0.544c-0.077-0.156-0.193-0.284-0.335-0.372l-0.004-0.002c-0.141-0.094-0.309-0.141-0.502-0.141s-0.363 0.047-0.509 0.141c-0.146 0.090-0.262 0.214-0.346 0.375-0.080 0.155-0.12 0.337-0.12 0.544s0.040 0.391 0.12 0.551c0.085 0.16 0.2 0.285 0.346 0.375s0.316 0.134 0.509 0.134z"></path>
</symbol>
<symbol id="icon-Ic_24-Calendar" viewBox="0 0 32 32">
<path fill="none" stroke="#fff" style="stroke: var(--color1, #fff)" stroke-linejoin="round" stroke-linecap="round" stroke-miterlimit="4" stroke-width="2.6667" d="M25.341 5.335h-18.672c-1.473 0-2.667 1.194-2.667 2.667v0 18.672c0 1.473 1.194 2.667 2.667 2.667v0h18.672c1.473 0 2.667-1.194 2.667-2.667v0-18.672c0-1.473-1.194-2.667-2.667-2.667v0z"></path>
<path fill="none" stroke="#fff" style="stroke: var(--color1, #fff)" stroke-linejoin="round" stroke-linecap="round" stroke-miterlimit="4" stroke-width="2.6667" d="M20.006 18.672l-4.168 5.335-2.501-2.51M21.34 2.667v5.335M10.67 2.667v5.335M4.001 13.337h24.007"></path>
</symbol>
<symbol id="icon-Ic_24-Check" viewBox="0 0 32 32">
<path fill="none" stroke="#15b2f5" style="stroke: var(--color2, #15b2f5)" stroke-linejoin="round" stroke-linecap="round" stroke-miterlimit="4" stroke-width="2.56" d="M26.24 8.324l-14.080 14.080-6.4-6.4"></path>
</symbol>
<symbol id="icon-Ic_24-Clock" viewBox="0 0 32 32">
<path fill="none" stroke="#fff" style="stroke: var(--color1, #fff)" stroke-linejoin="round" stroke-linecap="round" stroke-miterlimit="4" stroke-width="2.6667" d="M16.005 29.342c7.366 0 13.337-5.971 13.337-13.337s-5.971-13.337-13.337-13.337-13.337 5.971-13.337 13.337 5.971 13.337 13.337 13.337z"></path>
<path fill="none" stroke="#fff" style="stroke: var(--color1, #fff)" stroke-linejoin="round" stroke-linecap="round" stroke-miterlimit="4" stroke-width="2.6667" d="M16.005 8.002v8.002l5.335 2.667"></path>
</symbol>
<symbol id="icon-Ic_24-Guarantee" viewBox="0 0 32 32">
<path fill="none" stroke="#fff" style="stroke: var(--color1, #fff)" stroke-linejoin="miter" stroke-linecap="butt" stroke-miterlimit="4" stroke-width="2.6667" d="M14.104 3.929c0.484-0.491 1.157-0.796 1.901-0.796s1.416 0.304 1.9 0.795l0 0 1.391 1.414c0.484 0.491 1.156 0.795 1.9 0.795 0.007 0 0.015-0 0.022-0h-0.001l1.983-0.015c0.006-0 0.012-0 0.019-0 1.473 0 2.667 1.194 2.667 2.667 0 0.007-0 0.013-0 0.020v-0.001l-0.013 1.983c-0 0.006-0 0.013-0 0.021 0 0.743 0.304 1.416 0.795 1.899l0 0 1.412 1.391c0.491 0.484 0.796 1.157 0.796 1.901s-0.304 1.416-0.795 1.9l-1.414 1.391c-0.491 0.484-0.795 1.156-0.795 1.9 0 0.007 0 0.015 0 0.022v-0.001l0.015 1.983c0 0.006 0 0.012 0 0.019 0 1.473-1.194 2.667-2.667 2.667-0.007 0-0.013-0-0.020-0h0.001l-1.983-0.013c-0.006-0-0.013-0-0.021-0-0.743 0-1.416 0.304-1.899 0.795l-0 0-1.391 1.412c-0.484 0.491-1.157 0.796-1.901 0.796s-1.416-0.304-1.9-0.795l-0-0-1.391-1.414c-0.484-0.491-1.156-0.795-1.9-0.795-0.007 0-0.015 0-0.022 0h0.001l-1.983 0.015c-0.006 0-0.012 0-0.019 0-1.473 0-2.667-1.194-2.667-2.667 0-0.007 0-0.013 0-0.020v0.001l0.013-1.983c0-0.006 0-0.013 0-0.021 0-0.743-0.304-1.416-0.795-1.899l-0-0-1.412-1.391c-0.491-0.484-0.796-1.157-0.796-1.901s0.304-1.416 0.795-1.9l1.414-1.391c0.491-0.484 0.795-1.156 0.795-1.9 0-0.007-0-0.015-0-0.022v0.001l-0.016-1.983c-0-0.006-0-0.012-0-0.019 0-1.473 1.194-2.667 2.667-2.667 0.007 0 0.013 0 0.020 0h-0.001l1.983 0.013c0.006 0 0.013 0 0.021 0 0.743 0 1.416-0.304 1.899-0.795l0-0 1.391-1.412z"></path>
<path fill="none" stroke="#fff" style="stroke: var(--color1, #fff)" stroke-linejoin="round" stroke-linecap="round" stroke-miterlimit="4" stroke-width="2.6667" d="M21.34 13.337l-5.835 5.335-3.501-2.51"></path>
</symbol>
<symbol id="icon-Ic_24H-Filled" viewBox="0 0 32 32">
<path fill="#9ea3b5" style="fill: var(--color3, #9ea3b5)" d="M14.593 18.043c0.037-0.028 0.067-0.062 0.091-0.101l0.001-0.002c0.045-0.075 0.068-0.168 0.068-0.278 0-0.151-0.042-0.266-0.126-0.346-0.050-0.048-0.112-0.083-0.182-0.1l-0.003-0.001c-0.048-0.012-0.104-0.019-0.161-0.019-0.002 0-0.004 0-0.007 0h-1.258l0.724-0.716c0.105-0.102 0.204-0.209 0.298-0.32l0.005-0.007c0.058-0.070 0.11-0.14 0.155-0.207 0.105-0.144 0.19-0.311 0.248-0.49l0.003-0.012c0.054-0.167 0.082-0.339 0.082-0.515 0-0.28-0.061-0.515-0.182-0.703-0.122-0.193-0.299-0.339-0.534-0.44-0.101-0.045-0.219-0.081-0.342-0.105l-0.010-0.002c-0.146-0.028-0.314-0.044-0.486-0.044-0.008 0-0.015 0-0.023 0h0.001c-0.243 0-0.48 0.030-0.705 0.087l0.020-0.004-0.015 0.004-0.016 0.004c-0.086 0.023-0.171 0.052-0.255 0.085-0.1 0.040-0.181 0.079-0.26 0.122l0.012-0.006-0.004 0.003c-0.015 0.008-0.028 0.016-0.042 0.024-0.087 0.054-0.148 0.122-0.184 0.202-0.042 0.088-0.057 0.178-0.044 0.27 0.017 0.092 0.054 0.174 0.113 0.245 0.063 0.071 0.138 0.117 0.226 0.138 0.092 0.021 0.195 0.006 0.308-0.044l0.058-0.029 0.003-0.001c0.077-0.036 0.15-0.065 0.221-0.086 0.028-0.009 0.055-0.016 0.082-0.022 0.019-0.005 0.037-0.009 0.056-0.013l0.004-0.001c0.080-0.019 0.172-0.029 0.267-0.029 0.055 0 0.11 0.004 0.164 0.011l-0.006-0.001c0.087 0.012 0.162 0.035 0.225 0.068 0.023 0.012 0.044 0.026 0.064 0.041 0.104 0.079 0.157 0.199 0.157 0.358 0 0.126-0.036 0.251-0.107 0.377-0.022 0.041-0.042 0.074-0.064 0.106l0.003-0.005c-0.060 0.089-0.12 0.166-0.185 0.239l0.002-0.003-0.003 0.004c-0.031 0.036-0.064 0.072-0.099 0.11l-1.099 1.149c-0.046 0.048-0.089 0.099-0.129 0.153l-0.003 0.004-0.005 0.007-0.004 0.007c-0.020 0.028-0.042 0.060-0.062 0.093l-0.003 0.006c-0.047 0.088-0.075 0.192-0.075 0.302 0 0.004 0 0.008 0 0.013v-0.001c0 0.167 0.040 0.295 0.119 0.383 0.058 0.058 0.139 0.095 0.244 0.113 0.048 0.008 0.1 0.012 0.158 0.012h2.185c0.134 0 0.24-0.030 0.317-0.090z"></path>
<path fill="#9ea3b5" style="fill: var(--color3, #9ea3b5)" d="M16.941 17.392h-1.262c-0.184 0-0.329-0.042-0.433-0.126-0.1-0.084-0.151-0.211-0.151-0.383v0c0-0.001 0-0.002 0-0.003 0-0.103 0.021-0.202 0.057-0.286 0.009-0.024 0.020-0.049 0.033-0.076l0.005-0.010c0.030-0.057 0.063-0.113 0.094-0.159 0.021-0.032 0.044-0.066 0.069-0.1l1.532-2.235c0.084-0.126 0.178-0.218 0.283-0.276s0.228-0.088 0.37-0.088c0.159 0 0.284 0.048 0.377 0.144 0.092 0.092 0.138 0.234 0.138 0.427v2.298h0.151c0.116 0 0.212 0.020 0.286 0.061l0.002 0.001c0.020 0.011 0.038 0.024 0.055 0.038l0.001 0c0.025 0.020 0.047 0.043 0.066 0.071 0.049 0.069 0.074 0.156 0.074 0.262 0 0.066-0.009 0.125-0.027 0.176l-0.001 0.002c-0.020 0.057-0.053 0.108-0.098 0.148l-0.015 0.013c-0.079 0.067-0.194 0.1-0.343 0.1h-0.15v0.226c0 0.080-0.009 0.153-0.028 0.217-0.024 0.084-0.063 0.153-0.117 0.21l-0.002 0.002c-0.092 0.095-0.227 0.143-0.406 0.143-0.176 0-0.314-0.048-0.414-0.145-0.096-0.096-0.144-0.238-0.144-0.427v-0.226zM16.941 16.519v-1.221l-0.822 1.221h0.822z"></path>
<path fill="#9ea3b5" style="fill: var(--color3, #9ea3b5)" d="M18.914 15.746c0.005-0.028 0.013-0.053 0.024-0.077 0.026-0.058 0.071-0.104 0.127-0.13l0.002-0.001c0.045-0.020 0.097-0.031 0.158-0.032h0.004c0.014 0 0.029 0.001 0.043 0.002l-0.002-0c0.086 0.006 0.153 0.034 0.202 0.083 0.011 0.010 0.020 0.021 0.029 0.033l0 0.001c0.034 0.047 0.053 0.107 0.058 0.18 0.001 0.011 0.001 0.021 0.001 0.032v0.706c0.079-0.107 0.19-0.186 0.319-0.225l0.004-0.001c0.071-0.022 0.154-0.035 0.239-0.035 0.001 0 0.003 0 0.004 0h-0c0.145 0 0.264 0.028 0.357 0.084 0.033 0.019 0.061 0.041 0.087 0.065l-0-0 0.005 0.005h0.001c0.049 0.049 0.088 0.111 0.117 0.187 0.047 0.115 0.070 0.261 0.070 0.437v0.772c0 0.108-0.028 0.19-0.084 0.246-0.036 0.036-0.083 0.061-0.134 0.073l-0.002 0c-0.032 0.008-0.068 0.012-0.107 0.012-0.106 0-0.186-0.028-0.243-0.084s-0.085-0.139-0.085-0.246v-0.746c0-0.001 0-0.002 0-0.002 0-0.023-0.001-0.046-0.003-0.069l0 0.003-0.001-0.010-0.001-0.006-0.001-0.008-0.001-0.004c-0.003-0.020-0.006-0.037-0.011-0.053l0.001 0.003c-0.006-0.024-0.015-0.045-0.026-0.065l0.001 0.001-0.003-0.004c-0.005-0.008-0.010-0.015-0.015-0.021l0 0c-0.016-0.020-0.035-0.036-0.058-0.047l-0.001-0c-0.020-0.010-0.044-0.017-0.069-0.020l-0.001-0c-0.012-0.001-0.026-0.002-0.040-0.002-0.029 0-0.057 0.003-0.084 0.009l0.003-0c-0.060 0.014-0.112 0.044-0.151 0.087l-0 0c-0.020 0.021-0.037 0.045-0.050 0.072l-0.001 0.002c-0.019 0.040-0.032 0.086-0.035 0.135l-0 0.001c-0.001 0.013-0.002 0.027-0.002 0.040v0.706c0 0.221-0.11 0.331-0.331 0.331-0.001 0-0.002 0-0.003 0-0.046 0-0.091-0.007-0.132-0.020l0.003 0.001c-0.042-0.014-0.078-0.036-0.107-0.065l0 0c-0.056-0.056-0.084-0.139-0.084-0.246v-1.996c0-0.033 0.003-0.064 0.008-0.092z"></path>
<path fill="#9ea3b5" style="fill: var(--color3, #9ea3b5)" d="M2.667 15.84c0-7.364 5.969-13.334 13.333-13.334s13.333 5.969 13.333 13.333c0 7.364-5.969 13.333-13.333 13.333s-13.333-5.969-13.333-13.333zM10.971 18.725c0.357 0.357 0.812 0.423 1.119 0.423h2.185c0.32 0 0.737-0.084 1.069-0.416l0-0c0.094-0.094 0.175-0.201 0.243-0.326l-0.005-0c0.032 0.001 0.064 0.002 0.096 0.002 0 0 0 0 0 0h0.428l0.004 0.008c0.071 0.135 0.163 0.257 0.272 0.363 0.336 0.322 0.751 0.427 1.116 0.427 0.286 0 0.627-0.064 0.927-0.274 0.265 0.192 0.561 0.251 0.803 0.251h-0.001c0.004 0 0.007 0 0.011 0 0.216 0 0.421-0.047 0.596-0.129l-0.009-0.004c0.182 0.085 0.385 0.132 0.6 0.132 0.003 0 0.006 0 0.008-0 0.285 0 0.658-0.080 0.96-0.382 0.306-0.306 0.382-0.684 0.382-0.964v-0.772c0-0.255-0.032-0.54-0.143-0.814-0.115-0.287-0.316-0.567-0.635-0.754l0.007 0.004c-0.159-0.095-0.336-0.163-0.535-0.2-0.060-0.149-0.153-0.298-0.291-0.432-0.3-0.296-0.67-0.374-0.952-0.374-0.052 0-0.107 0.003-0.163 0.009v-0.28c0-0.331-0.077-0.78-0.427-1.136-0.319-0.329-0.727-0.45-1.102-0.45-0.284 0-0.584 0.059-0.866 0.217-0.274 0.153-0.477 0.37-0.627 0.593l-0.576 0.841c-0.054-0.208-0.139-0.412-0.262-0.603-0.243-0.384-0.59-0.655-0.987-0.826-0.395-0.172-0.829-0.234-1.263-0.234h-0c-0.3 0-0.592 0.034-0.846 0.093l-0.004 0.001c-0.3 0.068-0.587 0.177-0.858 0.324-0.257 0.139-0.51 0.36-0.663 0.69-0.12 0.255-0.17 0.541-0.13 0.836l0.001 0.009c0.043 0.281 0.162 0.537 0.334 0.744l0.002 0.002c0.194 0.232 0.46 0.402 0.773 0.478l0.010 0.003-0.009-0.002c0.016 0.004 0.031 0.007 0.056 0.011l-0.507 0.53c-0.13 0.136-0.247 0.287-0.346 0.453l0.004-0.008c-0.14 0.244-0.221 0.526-0.221 0.827 0 0.004 0 0.008 0 0.011 0 0.316 0.075 0.724 0.381 1.064l0.001 0.001c0.011 0.012 0.023 0.024 0.034 0.036zM13.814 8.508c0.265-0.083 0.531-0.15 0.797-0.204 4.248-0.828 8.381 1.914 9.261 6.163 0.73 3.527-1.010 6.992-4.041 8.597-0.035 0.014-0.063 0.027-0.090 0.041l0.005-0.003c-0.315 0.159-0.645 0.3-0.988 0.419l0.244-0.647c0.039-0.101 0.062-0.217 0.062-0.339 0-0.532-0.431-0.962-0.962-0.962-0.41 0-0.76 0.256-0.898 0.617l-0.002 0.007-0.956 2.541c-0.039 0.101-0.062 0.217-0.062 0.339 0 0.327 0.163 0.616 0.412 0.789l0.003 0.002 2.145 1.484c0.153 0.107 0.343 0.171 0.548 0.171 0.531 0 0.962-0.431 0.962-0.962 0-0.327-0.163-0.615-0.412-0.789l-0.003-0.002-0.552-0.382c1.851-0.638 3.4-1.756 4.547-3.205l0.016-0.020c0.048-0.042 0.092-0.090 0.132-0.142 0.64-0.833 1.16-1.8 1.511-2.845l0.020-0.070c0.027-0.081 0.042-0.162 0.046-0.243 0.256-0.832 0.404-1.789 0.404-2.781 0-0.369-0.020-0.734-0.060-1.093l0.004 0.044c0.015-0.093 0.017-0.189 0.004-0.287-0.084-0.612-0.21-1.157-0.378-1.683l0.019 0.070c-0.187-0.596-0.398-1.103-0.647-1.587l0.026 0.055c-0.046-0.089-0.101-0.166-0.165-0.233l0 0c-0.637-1.156-1.456-2.132-2.429-2.924l-0.018-0.014c-0.055-0.073-0.118-0.136-0.188-0.19l-0.002-0.002c-0.833-0.64-1.8-1.161-2.846-1.511l-0.070-0.020c-0.061-0.021-0.133-0.036-0.207-0.044l-0.004-0c-0.859-0.273-1.846-0.431-2.87-0.431-0.406 0-0.806 0.025-1.198 0.073l0.047-0.005c-0.042 0-0.084 0.003-0.127 0.009-0.496 0.068-0.93 0.159-1.352 0.278l0.070-0.017c-2.62 0.701-4.731 2.416-5.992 4.625-0.046 0.080-0.079 0.164-0.1 0.249-0.239 0.439-0.464 0.955-0.644 1.492l-0.020 0.070c-0.030 0.089-0.048 0.193-0.048 0.3 0 0.533 0.432 0.964 0.964 0.964 0.425 0 0.786-0.275 0.915-0.658l0.002-0.007c0.298-0.897 0.717-1.676 1.246-2.365l-0.014 0.019c0.047-0.062 0.086-0.127 0.116-0.195 0.667-0.814 1.478-1.483 2.398-1.975l0.042-0.021c0.049-0.016 0.098-0.035 0.145-0.060 0.345-0.18 0.753-0.349 1.177-0.484l0.056-0.015zM7.243 16.28l-0.005 0.001c-0.469 0.065-0.83 0.468-0.83 0.955 0 0.046 0.003 0.091 0.009 0.13l0.006 0.052c0.078 0.56 0.204 1.105 0.352 1.561l0.019 0.070c0.168 0.526 0.378 1.033 0.601 1.461l0.003 0.005c0.16 0.311 0.484 0.523 0.858 0.523 0.533 0 0.964-0.432 0.964-0.964 0-0.159-0.039-0.309-0.104-0.436-0.197-0.389-0.365-0.801-0.5-1.233s-0.23-0.866-0.289-1.299l-0.001-0.005c-0.065-0.469-0.468-0.83-0.955-0.83-0.046 0-0.091 0.003-0.13 0.009zM11.367 22.338c-0.16-0.123-0.364-0.197-0.584-0.197-0.533 0-0.964 0.432-0.964 0.964 0 0.312 0.148 0.589 0.378 0.765l0.002 0.002c0.833 0.64 1.8 1.16 2.845 1.511l0.070 0.020c0.090 0.030 0.193 0.048 0.3 0.048 0.533 0 0.964-0.432 0.964-0.964 0-0.425-0.275-0.786-0.658-0.915l-0.007-0.002c-0.897-0.298-1.676-0.717-2.365-1.246l0.019 0.014z"></path>
<path fill="#9ea3b5" style="fill: var(--color3, #9ea3b5)" d="M12.090 18.133c-0.184 0-0.318-0.042-0.402-0.125-0.080-0.088-0.119-0.216-0.119-0.383 0-0.117 0.025-0.222 0.075-0.314 0.054-0.092 0.124-0.182 0.207-0.27l1.099-1.149c0.163-0.176 0.278-0.326 0.345-0.452 0.071-0.125 0.107-0.251 0.107-0.377 0-0.159-0.052-0.278-0.157-0.358s-0.256-0.119-0.452-0.119c-0.1 0-0.207 0.015-0.32 0.044-0.138 0.034-0.259 0.081-0.372 0.142l0.008-0.004c-0.113 0.050-0.216 0.065-0.308 0.044s-0.168-0.071-0.226-0.137l-0-0.001c-0.056-0.068-0.096-0.15-0.112-0.242l-0-0.003c-0.012-0.092 0.002-0.182 0.044-0.27 0.042-0.092 0.117-0.167 0.226-0.226 0.172-0.096 0.371-0.174 0.581-0.223l0.016-0.003c0.189-0.044 0.405-0.069 0.628-0.069h0c0.343 0 0.63 0.050 0.86 0.15 0.235 0.1 0.412 0.247 0.534 0.44 0.122 0.188 0.182 0.422 0.182 0.703 0 0.176-0.027 0.348-0.082 0.515-0.061 0.192-0.146 0.358-0.255 0.508l0.004-0.005c-0.113 0.167-0.266 0.345-0.458 0.533l-1.017 1.005v-0.289h1.551c0.155 0 0.272 0.040 0.351 0.119 0.084 0.080 0.126 0.195 0.126 0.346s-0.042 0.268-0.126 0.351c-0.079 0.080-0.196 0.119-0.351 0.119h-2.185zM17.5 18.189c-0.176 0-0.314-0.048-0.414-0.145-0.096-0.096-0.144-0.238-0.144-0.427v-0.226h-1.262c-0.184 0-0.329-0.042-0.433-0.126-0.1-0.084-0.15-0.211-0.15-0.383 0-0.1 0.019-0.197 0.056-0.289 0.037-0.096 0.105-0.211 0.201-0.345l1.532-2.235c0.084-0.126 0.178-0.218 0.283-0.276s0.228-0.088 0.37-0.088c0.159 0 0.285 0.048 0.377 0.144 0.092 0.092 0.138 0.234 0.138 0.427v2.298h0.15c0.159 0 0.278 0.038 0.358 0.113 0.084 0.075 0.125 0.182 0.125 0.32 0 0.142-0.042 0.251-0.125 0.326-0.080 0.076-0.199 0.113-0.358 0.113h-0.151v0.226c0 0.184-0.048 0.326-0.144 0.427-0.092 0.096-0.228 0.145-0.408 0.145zM16.941 16.519v-1.482h0.176l-1.181 1.752v-0.27h1.005zM19.23 18.166c-0.103 0-0.182-0.028-0.239-0.084s-0.084-0.139-0.084-0.246v-1.996c0-0.108 0.028-0.19 0.084-0.246s0.136-0.084 0.239-0.084c0.106 0 0.186 0.028 0.243 0.085 0.059 0.056 0.088 0.138 0.088 0.246v0.801h-0.059c0.059-0.115 0.142-0.204 0.25-0.265 0.105-0.058 0.229-0.092 0.362-0.092 0.005 0 0.009 0 0.014 0h-0.001c0.145 0 0.263 0.028 0.356 0.084 0.093 0.054 0.163 0.14 0.21 0.257 0.047 0.115 0.070 0.261 0.070 0.437v0.772c0 0.108-0.028 0.19-0.084 0.246s-0.137 0.084-0.243 0.084c-0.106 0-0.186-0.028-0.243-0.084s-0.085-0.139-0.085-0.246v-0.746c0-0.11-0.020-0.189-0.059-0.236-0.037-0.046-0.092-0.070-0.166-0.070-0.098 0-0.176 0.032-0.235 0.096-0.059 0.061-0.088 0.145-0.088 0.25v0.706c0 0.221-0.11 0.331-0.331 0.331z"></path>
</symbol>
<symbol id="icon-Ic_24-Map-pin" viewBox="0 0 32 32">
<path fill="none" stroke="#fff" style="stroke: var(--color1, #fff)" stroke-linejoin="round" stroke-linecap="round" stroke-miterlimit="4" stroke-width="2.6667" d="M28.008 13.337c0 6.833-6.429 12.95-9.876 15.741-0.574 0.474-1.317 0.762-2.127 0.762s-1.554-0.288-2.133-0.767l0.006 0.005c-3.448-2.791-9.876-8.909-9.876-15.741 0-6.629 5.374-12.003 12.003-12.003s12.003 5.374 12.003 12.003v0z"></path>
<path fill="none" stroke="#fff" style="stroke: var(--color1, #fff)" stroke-linejoin="round" stroke-linecap="round" stroke-miterlimit="4" stroke-width="2.6667" d="M16.005 17.338c2.21 0 4.001-1.791 4.001-4.001s-1.791-4.001-4.001-4.001v0c-2.21 0-4.001 1.791-4.001 4.001s1.791 4.001 4.001 4.001v0z"></path>
</symbol>
<symbol id="icon-Ic_24-Star" viewBox="0 0 32 32">
<path fill="#ffa928" style="fill: var(--color4, #ffa928)" d="M14.265 5.354c0.547-1.685 2.931-1.685 3.478 0l1.443 4.441c0.246 0.74 0.931 1.263 1.739 1.263 0 0 0 0 0.001 0h4.67c1.772 0 2.508 2.267 1.075 3.309l-3.778 2.745c-0.459 0.336-0.754 0.874-0.754 1.48 0 0.202 0.033 0.397 0.093 0.578l-0.004-0.013 1.443 4.441c0.548 1.685-1.382 3.085-2.815 2.045l-3.778-2.745c-0.298-0.218-0.671-0.349-1.075-0.349s-0.777 0.131-1.080 0.353l0.005-0.004-3.779 2.745c-1.432 1.040-3.361-0.36-2.814-2.045l1.444-4.441c0.057-0.169 0.090-0.363 0.090-0.565 0-0.606-0.295-1.143-0.749-1.476l-0.005-0.004-3.778-2.745c-1.433-1.041-0.697-3.309 1.076-3.309h4.669c0.792 0 1.495-0.509 1.74-1.263l1.443-4.441z"></path>
</symbol>
<symbol id="icon-IC_arrow-Left" viewBox="0 0 32 32">
<path fill="none" stroke="#fff" style="stroke: var(--color1, #fff)" stroke-linejoin="round" stroke-linecap="round" stroke-miterlimit="4" stroke-width="2.56" d="M24.964 16h-17.92M16.004 24.96l-8.96-8.96 8.96-8.96"></path>
</symbol>
<symbol id="icon-IC_arrow-Right" viewBox="0 0 32 32">
<path fill="none" stroke="#fff" style="stroke: var(--color1, #fff)" stroke-linejoin="round" stroke-linecap="round" stroke-miterlimit="4" stroke-width="2.56" d="M7.044 16h17.92M16.004 7.040l8.96 8.96-8.96 8.96"></path>
</symbol>
<symbol id="icon-Ic_Bathroom-Filled" viewBox="0 0 32 32">
<path fill="#fff" style="fill: var(--color1, #fff)" d="M30 17h-28c-0.552 0-1 0.448-1 1v0 5c0.004 3.312 2.688 5.996 6 6h1v2c0 0.552 0.448 1 1 1s1-0.448 1-1v0-2h12v2c0 0.552 0.448 1 1 1s1-0.448 1-1v0-2h1c3.312-0.004 5.996-2.688 6-6v-5c0-0.552-0.448-1-1-1v0zM16 6.1v-1.1c0-1.657 1.343-3 3-3s3 1.343 3 3v0 10h2v-10c0-2.761-2.239-5-5-5s-5 2.239-5 5v0 1.1c-2.297 0.485-3.997 2.493-4 4.9v0c0 0.552 0.448 1 1 1v0h8c0.552 0 1-0.448 1-1v0c-0.003-2.407-1.703-4.416-3.967-4.894l-0.033-0.006z"></path>
</symbol>
<symbol id="icon-Ic_Calendar-Filled" viewBox="0 0 32 32">
<path fill="#9ea3b5" style="fill: var(--color3, #9ea3b5)" d="M22.019 4.349c-0.001-0.594-0.449-1.040-1.015-1.039-0.579 0.001-1.014 0.447-1.012 1.042l0.001 0.946-7.82 0.011-0.001-0.946c-0.001-0.595-0.436-1.040-1.015-1.039-0.579 0-1.013 0.447-1.012 1.042l0.001 1.013c-3.673 0.342-6.013 2.872-6.008 6.789l0.014 9.99c0.005 4.255 2.667 6.927 6.855 6.922l9.29-0.012c-1.815-1.139-3.018-3.126-3.018-5.388 0-1.356 0.433-2.614 1.171-3.65-0.148-0.106-0.243-0.278-0.243-0.471 0-0 0-0 0-0v0-1.876c0-0.32 0.259-0.579 0.579-0.579h1.876c0.32 0 0.579 0.259 0.579 0.579v0.119c0.764-0.33 1.653-0.522 2.588-0.522 0.004 0 0.008 0 0.011 0h-0.001c1.642 0 3.143 0.588 4.293 1.561l-0.010-6.758c-0.004-3.891-2.43-6.428-6.103-6.72l-0.001-1.013zM12.176 7.389l7.82-0.011 0.001 1.094c0 0.581 0.436 1.040 1.015 1.039 0.566 0 1.012-0.461 1.012-1.042l-0.001-1.040c2.58 0.227 4.018 1.751 4.075 4.656v0.473l-19.931 0.027-0.002-0.42c-0.004-2.931 1.417-4.46 3.984-4.721l0.001 1.040c0 0.582 0.436 1.040 1.015 1.039 0.579 0 1.012-0.46 1.012-1.042l-0.002-1.093zM7.173 17.683c0-0.32 0.259-0.579 0.579-0.579h1.876c0.32 0 0.579 0.259 0.579 0.579v1.876c0 0.32-0.259 0.579-0.579 0.579h-1.876c-0.32 0-0.579-0.259-0.579-0.579v-1.876zM7.752 22.069c-0.32 0-0.579 0.259-0.579 0.579v1.876c0 0.32 0.259 0.579 0.579 0.579h1.876c0.32 0 0.579-0.259 0.579-0.579v-1.876c0-0.32-0.259-0.579-0.579-0.579h-1.876zM12.69 17.683c0-0.32 0.259-0.579 0.579-0.579h1.876c0.32 0 0.579 0.259 0.579 0.579v1.876c0 0.32-0.259 0.579-0.579 0.579h-1.876c-0.32 0-0.579-0.259-0.579-0.579v-1.876zM13.269 22.069c-0.32 0-0.579 0.259-0.579 0.579v1.876c0 0.32 0.259 0.579 0.579 0.579h1.876c0.32 0 0.579-0.259 0.579-0.579v-1.876c0-0.32-0.259-0.579-0.579-0.579h-1.876z"></path>
<path fill="#9ea3b5" style="fill: var(--color3, #9ea3b5)" d="M23.862 18.483c2.971 0 5.379 2.347 5.379 5.242s-2.408 5.241-5.379 5.241c-2.971 0-5.379-2.347-5.379-5.241s2.408-5.242 5.379-5.242zM24.58 21.517c0-0.32-0.259-0.579-0.579-0.579s-0.579 0.259-0.579 0.579v0 2.695c0 0.229 0.134 0.436 0.343 0.529l1.379 0.615c0.069 0.032 0.151 0.050 0.236 0.050 0.32 0 0.579-0.259 0.579-0.579 0-0.234-0.139-0.436-0.34-0.527l-0.004-0.001-1.036-0.462v-2.32z"></path>
</symbol>
<symbol id="icon-IC_chevron-down" viewBox="0 0 32 32">
<path fill="none" stroke="#1f3584" style="stroke: var(--color5, #1f3584)" stroke-linejoin="round" stroke-linecap="round" stroke-miterlimit="4" stroke-width="2" d="M8.001 12.001l8.001 8.001 8.001-8.001"></path>
</symbol>
<symbol id="icon-IC_chevron-right" viewBox="0 0 32 32">
<path fill="none" stroke="#15b2f5" style="stroke: var(--color2, #15b2f5)" stroke-linejoin="round" stroke-linecap="round" stroke-miterlimit="4" stroke-width="2.6667" d="M12.003 24.007l8.002-8.002-8.002-8.002"></path>
</symbol>
<symbol id="icon-Ic_Commitment-Filled" viewBox="0 0 32 32">
<path fill="#9ea3b5" style="fill: var(--color3, #9ea3b5)" d="M26.758 14.157c0 6.142-5.743 11.122-12.828 11.122-0.006 0-0.013 0-0.020 0-0.354 0-0.706-0.013-1.054-0.037l0.047 0.003c1.904 1.712 4.565 2.776 7.509 2.776 0.005 0 0.012 0 0.018 0 1.088 0 2.141-0.146 3.142-0.421l-0.083 0.019c0.764 0.388 2.521 1.133 5.477 1.619 0.261 0.042 0.461-0.231 0.358-0.475-0.464-1.097-0.883-2.558-1.010-3.891 1.608-1.613 2.581-3.725 2.581-6.034 0-3.154-1.816-5.937-4.581-7.59 0.281 0.869 0.443 1.869 0.443 2.906 0 0.001 0 0.002 0 0.002v-0z"></path>
<path fill="#9ea3b5" style="fill: var(--color3, #9ea3b5)" d="M25.28 14.231c0 5.386-5.086 9.751-11.36 9.751-0.006 0-0.013 0-0.020 0-1.178 0-2.32-0.156-3.406-0.447l0.092 0.021c-0.828 0.412-2.732 1.204-5.935 1.719-0.283 0.044-0.5-0.245-0.388-0.504 0.502-1.165 0.957-2.717 1.094-4.132-1.742-1.714-2.797-3.956-2.797-6.408 0-5.386 5.086-9.751 11.36-9.751s11.36 4.366 11.36 9.751zM9.379 11.411c-0.402 0-0.727 0.326-0.727 0.727s0.326 0.727 0.727 0.727h5.242c0.402 0 0.727-0.326 0.727-0.727s-0.326-0.727-0.727-0.727h-5.242zM9.379 16.376c-0.395 0.009-0.712 0.331-0.712 0.727s0.317 0.719 0.711 0.727h9.38c0.005 0 0.010 0 0.015 0 0.402 0 0.727-0.326 0.727-0.727s-0.326-0.727-0.727-0.727c-0.005 0-0.011 0-0.016 0h-9.378z"></path>
</symbol>
<symbol id="icon-Ic_Door-Filled" viewBox="0 0 32 32">
<path fill="#fff" style="fill: var(--color1, #fff)" d="M29.036 7.982h-13.456c-0.585-0.573-1.386-0.926-2.27-0.926-1.792 0-3.245 1.453-3.245 3.245s1.453 3.245 3.245 3.245c0.884 0 1.685-0.354 2.271-0.927l-0.001 0.001h13.456c0.256 0 0.464-0.208 0.464-0.464v-3.709c0-0.256-0.208-0.464-0.464-0.464v0z"></path>
<path fill="#fff" style="fill: var(--color1, #fff)" d="M17.328 0.584h-9.146c-1.262 0-2.285 1.023-2.286 2.285v0l-0.437 26.261c0 1.263 1.024 2.286 2.286 2.286v0h9.146c1.263 0 2.286-1.024 2.286-2.286v0l0.437-14.828h-3.056c-0.875 0.712-2.004 1.143-3.233 1.143-2.841 0-5.144-2.303-5.144-5.144s2.303-5.144 5.144-5.144c1.229 0 2.357 0.431 3.241 1.15l-0.009-0.007h3.056v-3.429c-0-1.262-1.023-2.285-2.286-2.286h-0zM12.318 19.414c0.003-0 0.007-0 0.011-0 1.257 0 2.276 1.019 2.276 2.276 0 0.84-0.455 1.574-1.133 1.969l-0.011 0.006v2.608c0 0 0 0.001 0 0.001 0 0.315-0.256 0.571-0.571 0.571-0 0-0.001 0-0.001 0h-1.143c-0.315 0-0.571-0.256-0.571-0.571v0-2.609c-0.688-0.4-1.144-1.134-1.144-1.974 0-1.257 1.019-2.276 2.276-2.276 0.004 0 0.008 0 0.012 0h-0.001z"></path>
</symbol>
<symbol id="icon-Ic_Guarantee-Filled" viewBox="0 0 32 32">
<path fill="#9ea3b5" style="fill: var(--color3, #9ea3b5)" d="M14.217 3.332c0.466-0.479 1.117-0.777 1.837-0.777s1.371 0.297 1.836 0.776l0.001 0.001 0.574 0.591c0.466 0.479 1.116 0.777 1.837 0.777 0.007 0 0.014-0 0.020-0h-0.001l0.828-0.006c0.006-0 0.012-0 0.019-0 1.414 0 2.56 1.146 2.56 2.56 0 0.007-0 0.013-0 0.020v-0.001l-0.006 0.917c-0 0.006-0 0.012-0 0.019 0 0.707 0.287 1.347 0.75 1.81l0.651 0.651c0.463 0.463 0.75 1.103 0.75 1.811s-0.287 1.347-0.75 1.811l-0.651 0.651c-0.463 0.463-0.75 1.103-0.75 1.811 0 0.007 0 0.013 0 0.020v-0.001l0.007 0.917c0 0.006 0 0.012 0 0.019 0 1.414-1.146 2.56-2.56 2.56-0.007 0-0.014-0-0.020-0h0.001l-0.828-0.006c-0.006-0-0.012-0-0.019-0-0.72 0-1.371 0.297-1.836 0.776l-0.001 0.001-0.574 0.591c-0.466 0.479-1.117 0.777-1.837 0.777s-1.371-0.297-1.836-0.776l-0.001-0.001-0.573-0.591c-0.466-0.48-1.117-0.777-1.837-0.777-0.007 0-0.014 0-0.020 0h0.001l-0.828 0.006c-0.006 0-0.012 0-0.019 0-1.414 0-2.56-1.146-2.56-2.56 0-0.007 0-0.013 0-0.020v0.001l0.007-0.917c0-0.006 0-0.012 0-0.019 0-0.707-0.287-1.347-0.75-1.811l-0.651-0.651c-0.463-0.463-0.75-1.103-0.75-1.81s0.287-1.347 0.75-1.81l0.651-0.651c0.463-0.463 0.75-1.103 0.75-1.811 0-0.007-0-0.013-0-0.020v0.001l-0.007-0.917c-0-0.006-0-0.012-0-0.019 0-1.414 1.146-2.56 2.56-2.56 0.007 0 0.014 0 0.020 0h-0.001l0.828 0.006c0.006 0 0.012 0 0.019 0 0.72 0 1.371-0.297 1.836-0.776l0.001-0.001 0.574-0.591zM16.597 12.343l-0.588-0.588c-0.13-0.13-0.31-0.211-0.509-0.211-0.197 0-0.376 0.079-0.506 0.208l0-0-4.084 3.77c-0.148 0.14-0.246 0.319-0.255 0.519-0 0.009-0.001 0.020-0.001 0.031 0 0.198 0.079 0.377 0.208 0.507l-0-0 0.879 0.889c0.136 0.135 0.319 0.211 0.51 0.212h0.027c0.2-0.007 0.379-0.101 0.522-0.251l3.796-4.066c0.131-0.131 0.213-0.311 0.213-0.511 0-0.199-0.080-0.378-0.21-0.509l0 0zM21.318 11.155l-0.007-0.007-0.771-0.763c-0.087-0.087-0.208-0.141-0.341-0.141-0.001 0-0.002 0-0.003 0h0c-0.108 0-0.208 0.035-0.289 0.094l0.001-0.001c0-0.006 0.001-0.013 0.001-0.020l0.001-0.007v-0.001c0.011-0.146 0.026-0.367-0.117-0.566-0.178-0.239-0.361-0.45-0.558-0.646l-0-0-0.001-0.001-0.001-0.001c-0.3-0.295-0.952-0.851-1.951-1.259-0.352-0.149-0.762-0.235-1.192-0.235-0.001 0-0.001 0-0.002 0h0c-0.71 0-1.25 0.32-1.457 0.51-0.117 0.112-0.224 0.234-0.319 0.365-0.043 0.059-0.069 0.132-0.069 0.211 0 0.199 0.161 0.36 0.36 0.36 0.046 0 0.090-0.009 0.131-0.024l-0.002 0.001c0.051-0.020 0.116-0.040 0.182-0.057l0.011-0.002c0.089-0.020 0.191-0.031 0.296-0.031 0.042 0 0.084 0.002 0.125 0.005l-0.005-0c0.297 0.024 0.648 0.172 0.803 0.294 0.263 0.212 0.39 0.497 0.411 0.925 0.004 0.086-0.173 0.408-0.45 0.776-0.046 0.060-0.073 0.135-0.073 0.217 0 0.1 0.040 0.19 0.106 0.255v0l0.774 0.774c0.065 0.065 0.155 0.105 0.255 0.105 0.092 0 0.177-0.035 0.24-0.092l-0 0c0.219-0.195 0.553-0.49 0.669-0.563 0.173-0.106 0.297-0.127 0.331-0.13 0.013-0.001 0.027-0.002 0.042-0.002 0.078 0 0.151 0.021 0.214 0.057l-0.002-0.001c0 0.001 0 0.002 0 0.003 0 0.007-0.003 0.014-0.007 0.019l0-0-0.041 0.039-0.006 0.006c-0.088 0.088-0.143 0.209-0.143 0.343s0.055 0.256 0.144 0.344l0 0 0.771 0.763c0.087 0.087 0.208 0.141 0.341 0.141 0.001 0 0.002 0 0.003 0h-0c0.128 0 0.251-0.050 0.342-0.14l1.261-1.247c0.080-0.087 0.128-0.204 0.128-0.332 0-0.131-0.051-0.25-0.135-0.339l0 0z"></path>
<path fill="#9ea3b5" style="fill: var(--color3, #9ea3b5)" d="M17.924 23.917l2.88 5.567c0.234 0.452 0.876 0.463 1.126 0.020l1.46-2.585-1.483-2.426c-0.059-0.095-0.094-0.211-0.094-0.335 0-0.353 0.287-0.64 0.64-0.64 0.23 0 0.432 0.122 0.545 0.304l0.002 0.003 1.499 2.453 3.061 0.312c0.506 0.051 0.867-0.479 0.633-0.931l-3.048-5.891c-0.752 1.445-2.268 2.43-4.012 2.417l-0.828-0.006c-0.001 0-0.003-0-0.005-0-0.18 0-0.343 0.074-0.459 0.194l-0 0-0.574 0.591c-0.377 0.389-0.822 0.708-1.317 0.94l-0.027 0.012zM7.243 20.238l-2.805 5.423c-0.234 0.452 0.127 0.982 0.634 0.931l3.014-0.308 1.502-2.458c0.114-0.184 0.316-0.305 0.546-0.305 0.353 0 0.64 0.287 0.64 0.64 0 0.123-0.035 0.238-0.095 0.336l0.002-0.003-1.46 2.389 1.482 2.622c0.25 0.443 0.892 0.431 1.125-0.021l2.791-5.395c-0.7-0.24-1.296-0.626-1.777-1.123l-0.001-0.001-0.574-0.591c-0.116-0.12-0.279-0.194-0.459-0.194-0.002 0-0.003 0-0.005 0h0l-0.828 0.006c-1.548 0.012-2.917-0.763-3.731-1.948z"></path>
</symbol>
<symbol id="icon-Ic_Local-Filled" viewBox="0 0 32 32">
<path fill="#9ea3b5" style="fill: var(--color3, #9ea3b5)" d="M13.014 26.56l-7.36 0.96-1.12-5.28 5.6-0.96 2.88 5.28zM29.014 26.080l-6.72 0.8-1.12-5.28 4.96-0.8 2.88 5.28zM13.182 23.322l-0.328 0.038 2.72 4.8 5.28-0.32-1.11-5.23c-0.2 0.182-0.429 0.383-0.66 0.581l-0.042 0.035c-1.697 1.444-4.13 1.476-5.86 0.096z"></path>
<path fill="#9ea3b5" style="fill: var(--color3, #9ea3b5)" d="M18.005 22.007c2.459-2.093 6.369-6.122 6.369-10.589 0-2.222-0.877-4.353-2.437-5.924-1.502-1.514-3.583-2.452-5.883-2.454h-0c-2.3 0.001-4.381 0.94-5.883 2.453l-0.001 0.001c-1.506 1.519-2.437 3.61-2.437 5.919 0 0.002 0 0.003 0 0.005v-0c0 4.467 3.91 8.497 6.369 10.589 1.138 0.969 2.764 0.969 3.902 0zM19.894 11.36c0 2.121-1.719 3.84-3.84 3.84s-3.84-1.719-3.84-3.84 1.719-3.84 3.84-3.84c2.121 0 3.84 1.719 3.84 3.84z"></path>
</symbol>
<symbol id="icon-IC_phone" viewBox="0 0 32 32">
<path fill="#15b2f5" style="fill: var(--color2, #15b2f5)" d="M28.8 22.302v3.84c0 0.003 0 0.007 0 0.010 0 1.414-1.146 2.56-2.56 2.56-0.081 0-0.161-0.004-0.241-0.011l0.010 0.001c-4.154-0.463-7.906-1.865-11.143-3.989l0.096 0.059c-3.112-1.998-5.682-4.567-7.62-7.581l-0.060-0.099c-2.072-3.155-3.475-6.925-3.92-10.985l-0.010-0.113c-0.007-0.069-0.010-0.149-0.010-0.23 0-1.413 1.145-2.559 2.557-2.56h3.84c0.008-0 0.016-0 0.025-0 1.287 0 2.353 0.95 2.533 2.188l0.002 0.014c0.163 1.229 0.462 2.436 0.896 3.597 0.104 0.268 0.164 0.577 0.164 0.901 0 0.702-0.282 1.338-0.74 1.8l-1.625 1.625c1.855 3.222 4.458 5.825 7.581 7.627l0.099 0.053 1.626-1.626c0.462-0.457 1.098-0.74 1.8-0.74 0.324 0 0.633 0.060 0.918 0.17l-0.018-0.006c1.161 0.434 2.368 0.735 3.597 0.896 1.252 0.182 2.202 1.247 2.202 2.535 0 0.022-0 0.045-0.001 0.067l0-0.003z"></path>
</symbol>
<symbol id="icon-Ic_Quotes-Filled" viewBox="0 0 32 32">
<path fill="#9ea3b5" style="fill: var(--color3, #9ea3b5)" d="M18.391 4.977c0-0.159-0.129-0.287-0.287-0.287v0h-8.046c-1.746 0-3.161 1.415-3.161 3.161v0 16.092c0 1.746 1.415 3.161 3.161 3.161v0h11.494c1.745-0 3.16-1.415 3.161-3.161v-1.266l-0.38 0.379-3.092 0.712-0.103 0.010c-0.129 0.013-0.258 0.015-0.387 0.006-1.222-0.051-2.194-1.054-2.194-2.285 0-0.173 0.019-0.342 0.056-0.504l-0.003 0.015 0.002-0.010 0.691-2.984 5.41-5.425c-0.013-0.148-0.136-0.264-0.286-0.264 0 0 0 0-0 0h-5.172c-0.476 0-0.862-0.386-0.862-0.862v0-6.491zM9.184 14.069c0-0.457 0.37-0.827 0.827-0.828h3.586c0.457 0 0.828 0.37 0.828 0.828s-0.37 0.828-0.828 0.828h-3.586c-0.457 0-0.828-0.37-0.828-0.828v0zM9.184 18.207c0-0.457 0.37-0.827 0.827-0.828h6.345c0.457 0 0.828 0.371 0.828 0.828s-0.371 0.828-0.828 0.828v0h-6.345c-0.457 0-0.828-0.37-0.828-0.828v0zM9.184 22.345c0-0.457 0.37-0.828 0.828-0.828v0h6.345c0.457 0 0.828 0.371 0.828 0.828s-0.371 0.828-0.828 0.828v0h-6.345c-0.457 0-0.828-0.37-0.828-0.828 0-0 0-0 0-0v0z"></path>
<path fill="#9ea3b5" style="fill: var(--color3, #9ea3b5)" d="M24.713 20.339v-5.402l-3.905 3.915-0.582 2.514c-0.009 0.041-0.015 0.087-0.015 0.135 0 0.347 0.281 0.629 0.628 0.631h0c0.044 0.004 0.088 0.004 0.132 0l2.529-0.582 1.213-1.21zM20.211 5.654c0-0.201 0.202-0.329 0.351-0.203 0.126 0.107 0.24 0.231 0.337 0.373l3.147 4.579c0.017 0.024 0.027 0.054 0.027 0.086 0 0.085-0.069 0.154-0.154 0.154-0.001 0-0.002 0-0.003-0h-3.444c-0.073-0-0.138-0.031-0.185-0.080l-0-0c-0.048-0.050-0.077-0.118-0.077-0.192 0-0 0-0 0-0v0-4.716z"></path>
<path fill="#9ea3b5" style="fill: var(--color3, #9ea3b5)" d="M20.808 18.852l-0.582 2.514c-0.009 0.041-0.015 0.087-0.015 0.135 0 0.347 0.281 0.629 0.628 0.631h0c0.044 0.004 0.088 0.004 0.132 0l2.529-0.582 4.436-4.424-2.71-2.704-4.418 4.43zM29.881 14.291l-1.809-1.808c-0.115-0.114-0.273-0.185-0.448-0.185s-0.333 0.071-0.448 0.185l-1.005 1.005 2.707 2.706 1.005-1.005c0.114-0.115 0.185-0.273 0.185-0.448 0-0.176-0.072-0.336-0.188-0.451l-0-0z"></path>
</symbol>
<symbol id="icon-Ic_Repair_Filled" viewBox="0 0 32 32">
<path fill="#fff" style="fill: var(--color1, #fff)" d="M22.944 6.364c-0.419 0.435-0.677 1.027-0.677 1.679 0 1.337 1.084 2.421 2.421 2.421 0.020 0 0.039-0 0.059-0.001l-0.003 0c0.669-0.014 1.269-0.296 1.699-0.743l0.001-0.001 3.224-3.354c0.461 0.896 0.732 1.956 0.732 3.079 0 1.843-0.729 3.516-1.914 4.747l0.002-0.002c-1.251 1.3-3.006 2.107-4.949 2.107-1.026 0-2-0.225-2.874-0.629l0.043 0.018c-1.706-1.27-2.464-2.006-3.501-3.355-0.461-0.896-0.732-1.956-0.732-3.079 0-1.844 0.729-3.517 1.915-4.747l-0.002 0.002c1.251-1.3 3.006-2.107 4.949-2.107 1.026 0 2 0.225 2.874 0.629l-0.043-0.018-3.224 3.354zM10.893 19.030l3.518 3.336-5.224 5.541c-0.442 0.458-1.062 0.743-1.748 0.743-1.321 0-2.396-1.055-2.427-2.369l-0-0.003c-0-0.014-0-0.032-0-0.049 0-0.652 0.258-1.243 0.676-1.679l-0.001 0.001 5.206-5.522zM15.333 13.042l11.434 10.842c0.548 0.52 0.889 1.253 0.889 2.067 0 0.745-0.287 1.424-0.756 1.931l0.002-0.002c-0.524 0.567-1.271 0.921-2.1 0.921-0.762 0-1.454-0.299-1.967-0.785l-11.432-10.84c-0.548-0.52-0.889-1.254-0.889-2.067 0-0.464 0.111-0.902 0.307-1.288l-0.007 0.016-5.308-5.116-0.984 0.984-2.922-3.936 1.806-1.995 4.224 2.822-0.976 0.976 5.269 5.079c0.413-0.246 0.912-0.391 1.444-0.391 0.762 0 1.455 0.298 1.967 0.785l-0.001-0.001z"></path>
</symbol>
<symbol id="icon-Ic_Roof_Filled" viewBox="0 0 32 32">
<path fill="#fff" style="fill: var(--color1, #fff)" d="M11.129 11.926h-5.040l-0.28 0.538h5.012l-2.19 3.826h-4.808l-0.28 0.539h4.78l-2.018 3.523h-4.616l1.242-2.386v-1.138h0.015v-0.538h-0.015v-3.826h0.015v-0.538h-0.015v-0.286h0.015v-1.064h3.829l1.413-2.716h5.27l-2.328 4.066zM14.077 7.859l-2.328 4.066h4.376l2.328-4.066h-4.376zM19.074 7.859l-2.328 4.066h4.712l1.040-2.031 7.072 14.247h2.712l-8.469-16.282h-4.739z"></path>
<path fill="#fff" style="fill: var(--color1, #fff)" d="M21.182 12.464h-4.744l-2.19 3.826h4.974l1.96-3.826zM18.944 16.828h-5.005l-2.017 3.524h5.216l1.806-3.524zM16.863 20.89h-5.25l-1.861 3.251h5.444l1.666-3.251zM9.132 24.142l1.862-3.251h-4.376l-1.862 3.251h4.376zM4.136 24.142l1.861-3.251h-4.588l-1.691 3.251h4.418zM11.441 12.464h4.376l-2.19 3.826h-4.376l2.189-3.826zM8.942 16.828l-2.017 3.524h4.376l2.017-3.524h-4.376zM19.91 17.978h2.374v2.374h-2.374v-2.374zM19.91 20.946h2.374v2.374h-2.374v-2.374zM25.251 17.978h-2.374v2.374h2.374v-2.374zM22.878 20.946h2.374v2.374h-2.374v-2.374z"></path>
</symbol>
<symbol id="icon-Ic_Wall-Filled" viewBox="0 0 32 32">
<path fill="#fff" style="fill: var(--color1, #fff)" d="M4 7.2c0-0.442 0.358-0.8 0.8-0.8v0h9.666c0.442 0 0.8 0.358 0.8 0.8v0 3.806c0 0.442-0.358 0.8-0.8 0.8v0h-9.666c-0.442 0-0.8-0.358-0.8-0.8v0-3.806zM4 14.498c0-0.442 0.358-0.8 0.8-0.8v0h4.768c0.442 0 0.8 0.358 0.8 0.8v0 3.805c0 0.442-0.358 0.8-0.8 0.8v0h-4.768c-0.442 0-0.8-0.358-0.8-0.8v0-3.805zM11.837 14.498c0-0.442 0.358-0.8 0.8-0.8v0h9.666c0.442 0 0.8 0.358 0.8 0.8v0 3.805c0 0.442-0.358 0.8-0.8 0.8v0h-9.666c-0.442 0-0.8-0.358-0.8-0.8v0-3.805zM4 21.794c0-0.442 0.358-0.8 0.8-0.8v0h9.666c0.442 0 0.8 0.358 0.8 0.8v0 3.806c0 0.442-0.358 0.8-0.8 0.8v0h-9.666c-0.442 0-0.8-0.358-0.8-0.8v0-3.806zM16.734 21.794c0-0.442 0.358-0.8 0.8-0.8v0h9.666c0.442 0 0.8 0.358 0.8 0.8v0 3.806c0 0.442-0.358 0.8-0.8 0.8v0h-9.666c-0.442 0-0.8-0.358-0.8-0.8v0-3.806z"></path>
</symbol>
<symbol id="icon-Ic_Wood-Tree-Filled" viewBox="0 0 32 32">
<path fill="#fff" style="fill: var(--color1, #fff)" d="M27.777 2.367h-2.821c-0.183 0-0.341 0.105-0.419 0.257l-0.001 0.003-2.4 4.8-2.4-4.8c-0.079-0.155-0.238-0.26-0.421-0.26-0 0-0 0-0 0h-10.342c-0 0-0.001 0-0.001 0-0.259 0-0.47 0.21-0.47 0.47 0 0 0 0.001 0 0.001v-0 12.306l-4.448-2.83c-0.071-0.046-0.159-0.073-0.252-0.073-0.13 0-0.247 0.053-0.332 0.137v0l-2.35 2.35c-0.085 0.085-0.138 0.203-0.138 0.333 0 0.12 0.045 0.23 0.119 0.313l-0-0 7.402 8.328v5.462c0 0.259 0.21 0.47 0.47 0.47h5.17v-7.522c0-0.26 0.211-0.47 0.47-0.47s0.47 0.211 0.47 0.47v0 7.522h12.691c0 0 0.001 0 0.001 0 0.259 0 0.47-0.21 0.47-0.47 0 0 0 0 0 0v0-26.325c0-0 0-0.001 0-0.001 0-0.259-0.21-0.47-0.47-0.47-0 0-0.001 0-0.001 0h0zM15.085 19.29c0 0.26-0.211 0.47-0.47 0.47s-0.47-0.211-0.47-0.47v0-0.94c0-0.26 0.211-0.47 0.47-0.47s0.47 0.211 0.47 0.47v0.94z"></path>
</symbol>
<symbol id="icon-Icon" viewBox="0 0 32 32">
<path fill="#15b2f5" style="fill: var(--color2, #15b2f5); stroke: var(--color6, #000)" stroke="#000" stroke-linejoin="miter" stroke-linecap="butt" stroke-miterlimit="4" stroke-width="0.8533" d="M14.1 3.928c1.045-1.060 2.755-1.060 3.799 0l1.391 1.412c0.484 0.491 1.156 0.795 1.9 0.795 0.007 0 0.014-0 0.021-0h-0.001l1.982-0.015c1.488-0.011 2.698 1.198 2.686 2.687l-0.015 1.982c-0 0.006-0 0.013-0 0.020 0 0.744 0.304 1.416 0.795 1.9l0 0 1.412 1.391c1.060 1.045 1.060 2.755 0 3.799l-1.412 1.391c-0.491 0.484-0.795 1.157-0.795 1.9 0 0.007 0 0.014 0 0.021v-0.001l0.015 1.982c0.011 1.488-1.198 2.698-2.686 2.686l-1.982-0.015c-0.006-0-0.013-0-0.020-0-0.744 0-1.416 0.304-1.9 0.795l-0 0-1.391 1.412c-1.045 1.060-2.755 1.060-3.799 0l-1.391-1.412c-0.484-0.491-1.156-0.795-1.9-0.795-0.007 0-0.014 0-0.021 0h0.001l-1.982 0.015c-1.488 0.011-2.698-1.198-2.687-2.686l0.015-1.982c0-0.006 0-0.013 0-0.020 0-0.743-0.304-1.416-0.795-1.9l-0-0-1.412-1.391c-1.060-1.045-1.060-2.755 0-3.799l1.412-1.391c0.491-0.484 0.795-1.156 0.795-1.9 0-0.007-0-0.014-0-0.021v0.001l-0.015-1.982c-0.011-1.488 1.198-2.698 2.687-2.687l1.982 0.015c0.006 0 0.013 0 0.020 0 0.743 0 1.416-0.304 1.9-0.795l0-0 1.391-1.412z"></path>
<path fill="none" stroke="#fff" style="stroke: var(--color1, #fff)" stroke-linejoin="round" stroke-linecap="round" stroke-miterlimit="4" stroke-width="2.6667" d="M21.333 13.333l-5.833 5.333-3.5-2.51"></path>
</symbol>
<symbol id="icon-Ic-Plumbing-Filled" viewBox="0 0 32 32">
<path fill="#fff" style="fill: var(--color1, #fff)" d="M26.682 5.89l-3.183-3.048c-1.171-1.122-3.078-1.122-4.25 0l-4.25 4.068 3.184 3.048 3.183-3.048 5.315 5.090c0.809-0.77 1.313-1.854 1.318-3.055v-0.001c-0.005-1.202-0.509-2.284-1.316-3.053l-0.002-0.002zM6.616 18.386c0.376 0.379 0.898 0.614 1.474 0.614s1.098-0.235 1.474-0.614l0-0 3.435-3.429-2.949-2.957-3.435 3.429c-0.38 0.377-0.616 0.9-0.616 1.478s0.235 1.101 0.615 1.478l0 0z"></path>
<path fill="#fff" style="fill: var(--color1, #fff)" d="M20.432 10.134l4.14 4.011c0.136 0.131 0.243 0.287 0.317 0.458 0.070 0.159 0.111 0.345 0.111 0.541s-0.041 0.381-0.115 0.55l0.003-0.009c-0.078 0.179-0.185 0.331-0.316 0.458l-0 0c-0.136 0.132-0.298 0.236-0.475 0.306-0.165 0.068-0.357 0.107-0.558 0.107-0.402 0-0.768-0.157-1.038-0.414l0.001 0.001-13.489 13.028c-1.145 1.106-3.009 1.106-4.154 0-0.53-0.506-0.859-1.217-0.859-2.006s0.329-1.5 0.858-2.005l0.001-0.001 10.377-10.022-4.667-4.507c-0.2-0.191-0.362-0.419-0.475-0.675l-0.005-0.013c-0.107-0.24-0.169-0.52-0.169-0.814s0.062-0.574 0.174-0.828l-0.005 0.013c0.111-0.258 0.274-0.492 0.48-0.688 0.852-0.837 2.246-0.837 3.112 0.014l4.668 4.507 2.084-2.013z"></path>
</symbol>
<symbol id="icon-instagram" viewBox="0 0 32 32">
<path fill="#fff" style="fill: var(--color1, #fff)" d="M22.673 2.667h-13.337c-3.683 0-6.669 2.986-6.669 6.669v0 13.337c0 3.683 2.986 6.669 6.669 6.669v0h13.337c3.683 0 6.669-2.986 6.669-6.669v0-13.337c0-3.683-2.986-6.669-6.669-6.669v0z"></path>
<path fill="none" stroke="#15b2f5" style="stroke: var(--color2, #15b2f5)" stroke-linejoin="round" stroke-linecap="round" stroke-miterlimit="4" stroke-width="2.6667" d="M21.34 15.164c0.037 0.235 0.058 0.507 0.058 0.783 0 2.947-2.389 5.335-5.335 5.335-2.67 0-4.882-1.962-5.274-4.523l-0.004-0.030c-0.037-0.235-0.058-0.507-0.058-0.783 0-2.947 2.389-5.335 5.335-5.335 2.67 0 4.882 1.962 5.274 4.523l0.004 0.030zM23.34 8.669h0.013"></path>
</symbol>
<symbol id="icon-logo" viewBox="0 0 32 32">
<path fill="#15b2f5" style="fill: var(--color2, #15b2f5)" d="M14.082 7.751c0.53-0.394 1.198-0.63 1.92-0.63s1.39 0.236 1.929 0.636l-0.009-0.006 6.889 5.066c0.83 0.61 1.321 1.58 1.321 2.611v10.333h-6.484v-8.693l-3.646-2.681-3.647 2.681v8.693h-6.483v-10.333c0-1.030 0.49-2 1.32-2.611l6.89-5.066z"></path>
<path fill="#fff" style="fill: var(--color1, #fff)" d="M12.396 25.761h7.244v5.243h-7.244z"></path>
</symbol>
<symbol id="icon-Logo_big" viewBox="0 0 32 32">
<path fill="#fff" style="fill: var(--color1, #fff)" d="M13.477 0.945c0.702-0.521 1.586-0.834 2.542-0.834s1.84 0.313 2.554 0.842l-0.012-0.008 9.121 6.706c1.066 0.79 1.749 2.044 1.749 3.458 0 0 0 0 0 0v0 13.681h-8.584v-11.51l-4.829-3.551-4.829 3.551v11.51h-8.584v-13.681c0-1.365 0.65-2.649 1.749-3.458l9.121-6.706z"></path>
<path fill="#142257" style="fill: var(--color7, #142257)" d="M11.246 24.79h9.591v6.942h-9.591z"></path>
</symbol>
<symbol id="icon-logo3" viewBox="0 0 32 32">
<path fill="#fff" style="fill: var(--color1, #fff)" d="M13.51 1.406c0.688-0.51 1.554-0.817 2.491-0.817s1.803 0.307 2.502 0.825l-0.011-0.008 8.938 6.571c1.045 0.774 1.714 2.003 1.714 3.388v0 13.405h-8.412v-11.277l-4.731-3.479-4.731 3.479v11.277h-8.409v-13.405c0-1.338 0.636-2.596 1.713-3.388l8.936-6.571z"></path>
<path fill="#fff" style="fill: var(--color1, #fff)" d="M11.325 24.769h9.398v6.801h-9.398z"></path>
</symbol>
<symbol id="icon-mail" viewBox="0 0 32 32">
<path fill="#fff" style="fill: var(--color1, #fff)" d="M5.335 5.335h21.34c1.467 0 2.667 1.2 2.667 2.667v16.005c0 1.467-1.2 2.667-2.667 2.667h-21.34c-1.467 0-2.667-1.2-2.667-2.667v-16.005c0-1.467 1.2-2.667 2.667-2.667z"></path>
<path fill="none" stroke="#15b2f5" style="stroke: var(--color2, #15b2f5)" stroke-linejoin="round" stroke-linecap="round" stroke-miterlimit="4" stroke-width="2.6667" d="M29.342 8.002l-13.337 9.336-13.337-9.336"></path>
</symbol>
<symbol id="icon-twitter" viewBox="0 0 32 32">
<path fill="#fff" style="fill: var(--color1, #fff)" d="M30.676 4.001c-1.2 0.857-2.591 1.552-4.085 2.013l-0.103 0.027c-1.101-1.261-2.712-2.054-4.509-2.054-3.3 0-5.975 2.675-5.975 5.975 0 0.028 0 0.056 0.001 0.084l-0-0.004v1.334c-0.11 0.003-0.239 0.005-0.369 0.005-4.792 0-9.030-2.37-11.605-6.002l-0.030-0.044s-5.335 12.003 6.669 17.338c-2.443 1.678-5.464 2.68-8.719 2.68-0.217 0-0.433-0.004-0.648-0.013l0.031 0.001c12.003 6.669 26.674 0 26.674-15.338 0-0.371-0.037-0.742-0.107-1.107 1.323-1.305 2.294-2.964 2.759-4.824l0.015-0.071z"></path>
</symbol>
<symbol id="icon-youtube" viewBox="0 0 32 32">
<path fill="#fff" style="fill: var(--color1, #fff)" d="M29.128 6.882c-0.455-0.469-1.026-0.81-1.654-0.987-2.294-0.56-11.47-0.56-11.47-0.56s-9.176 0-11.47 0.614l-0.026 0.006c-1.251 0.363-2.23 1.368-2.561 2.661l0.037-0.239c-0.427 2.303-0.651 4.677-0.651 7.103 0 0.067 0 0.134 0 0.191l0-0.013c-0.001 0.085-0.001 0.171-0.001 0.256 0 2.427 0.224 4.802 0.614 6.866l0.007 0.026c0.357 1.222 1.327 2.183 2.581 2.535 2.294 0.613 11.47 0.613 11.47 0.613s9.176 0 11.47-0.613l0.026-0.006c1.251-0.363 2.23-1.368 2.561-2.661l-0.037 0.239c0.427-2.302 0.651-4.676 0.651-7.103 0-0.049-0-0.097-0-0.138 0.016-2.383-0.189-4.763-0.613-7.109-0.157-0.634-0.48-1.214-0.934-1.681zM20.673 15.671l-7.669 4.361v-8.723l7.669 4.361z"></path>
</symbol>
</defs>
</svg>
